<?xml version="1.0" encoding="UTF-8" standalone="no"?>
<svg
   xmlns:dc="http://purl.org/dc/elements/1.1/"
   xmlns:cc="http://creativecommons.org/ns#"
   xmlns:rdf="http://www.w3.org/1999/02/22-rdf-syntax-ns#"
   xmlns:svg="http://www.w3.org/2000/svg"
   xmlns="http://www.w3.org/2000/svg"
   id="svg8"
   version="1.1"
   viewBox="0 0 211.93056 28.912939"
   height="28.912939mm"
   width="211.93056mm">
  <defs
     id="defs2">
    <style
       id="style1013">.cls-1{fill:none;}.cls-2{fill:#d5d2ca;}.cls-3{fill:#e0684b;}.cls-4{fill:#bb464b;}.cls-5{fill:#e0ded8;}.cls-6{fill:#fff;}</style>
  </defs>
  <metadata
     id="metadata5">
    <rdf:RDF>
      <cc:Work
         rdf:about="">
        <dc:format>image/svg+xml</dc:format>
        <dc:type
           rdf:resource="http://purl.org/dc/dcmitype/StillImage" />
        <dc:title></dc:title>
      </cc:Work>
    </rdf:RDF>
  </metadata>
  <g
     transform="translate(-41.818264,-88.783204)"
     id="layer1">
    <path
       id="path277"
       d="m 231.72756,113.83182 c -1.64336,-0.0904 -2.698,-0.25706 -3.91307,-0.61858 -0.39414,-0.11725 -1.01496,-0.36021 -1.34169,-0.52501 -1.61437,-0.81439 -2.82103,-2.34504 -3.54897,-4.50192 -0.45364,-1.34413 -0.71864,-3.02577 -0.6901,-4.37932 0.01,-0.47495 0.0122,-0.48955 0.0977,-0.64396 0.0953,-0.17198 0.26356,-0.32645 0.4449,-0.40834 0.10963,-0.0495 0.62987,-0.0529 10.17344,-0.067 l 10.05788,-0.0148 0.36742,-0.069 c 0.42531,-0.08 0.77816,-0.17792 1.08942,-0.30257 0.31272,-0.12523 0.30859,-0.11818 0.19038,-0.31994 -0.1842,-0.3143 -0.35132,-0.7595 -0.44494,-1.18532 -0.0828,-0.37662 -0.0744,-1.312174 0.0156,-1.730864 0.14709,-0.68444 0.46137,-1.44526 0.81511,-1.97328 0.27087,-0.40432 0.21789,-0.38936 0.59136,-0.16697 1.10165,0.65572 1.89279,1.74488 2.15018,2.96014 l 0.052,0.245494 0.11961,-0.0186 c 0.55607,-0.0828 1.42669,-0.1039 1.8573,-0.0447 0.51626,0.0707 0.98954,0.20569 1.34007,0.38205 0.1343,0.0675 0.39524,0.24797 0.57993,0.40094 0.0334,0.0276 0.0231,0.0811 -0.0608,0.31604 -0.33984,0.95081 -1.16288,1.79061 -2.17213,2.21632 -0.54333,0.2292 -1.15224,0.35307 -1.86994,0.38045 -0.22422,0.009 -0.41551,0.025 -0.42509,0.0367 -0.01,0.0111 -0.10145,0.22664 -0.20416,0.47773 -1.30338,3.18628 -3.02322,5.44061 -5.37554,7.0462 -1.48413,1.01301 -3.35756,1.77084 -5.36027,2.16831 -0.73683,0.14619 -1.19023,0.20528 -2.40035,0.31253 -0.22598,0.02 -1.87988,0.0406 -2.13528,0.0265 z m -6.93598,-11.79196 c -0.07,-0.0699 -0.0642,0.0546 -0.0655,-1.39721 l -9.8e-4,-1.176324 0.0791,-0.0681 0.0791,-0.0681 h 1.36392 c 1.33523,0 1.36553,10e-4 1.44151,0.061 l 0.0776,0.061 v 1.264324 c 0,1.22502 -0.002,1.26612 -0.0589,1.3232 -0.0573,0.0573 -0.0982,0.0588 -1.45788,0.0588 -1.35971,0 -1.40063,-0.002 -1.45788,-0.0588 z m 3.59316,0 c -0.0571,-0.0571 -0.0589,-0.0981 -0.0589,-1.3232 v -1.264284 l 0.0776,-0.061 c 0.076,-0.0597 0.10631,-0.061 1.43918,-0.061 1.33288,0 1.36322,0.001 1.43919,0.061 l 0.0776,0.061 v 1.264304 c 0,1.22502 -0.002,1.26613 -0.0589,1.3232 -0.0573,0.0573 -0.0982,0.059 -1.45788,0.059 -1.35971,0 -1.40063,-0.002 -1.45788,-0.059 z m 3.65207,0 c -0.07,-0.0699 -0.0642,0.0546 -0.0655,-1.39721 l -9.9e-4,-1.176324 0.0791,-0.0681 0.0791,-0.0681 h 1.36391 c 1.33523,0 1.36554,10e-4 1.44151,0.061 l 0.0776,0.061 v 1.264324 c 0,1.22502 -0.002,1.26612 -0.0589,1.3232 -0.0573,0.0573 -0.0982,0.0588 -1.45788,0.0588 -1.3597,0 -1.40062,-0.002 -1.45788,-0.0588 z m 3.59529,-0.0187 c -0.0595,-0.0757 -0.061,-0.10779 -0.061,-1.30735 0,-1.166794 0.003,-1.233324 0.0563,-1.299294 l 0.0563,-0.0696 1.4021,-0.007 1.40211,-0.007 0.0731,0.0731 0.0731,0.0731 v 1.234354 c 0,1.20417 -0.001,1.23625 -0.061,1.31196 l -0.061,0.0776 h -1.40943 -1.40943 z m 3.64992,0.0187 c -0.0571,-0.0571 -0.0589,-0.0981 -0.0589,-1.3232 v -1.264284 l 0.0776,-0.061 c 0.076,-0.0597 0.10627,-0.061 1.4415,-0.061 h 1.36391 l 0.0793,0.0681 0.0793,0.0681 -10e-4,1.161464 c -0.001,1.45682 0.004,1.34244 -0.0656,1.41179 -0.0573,0.0573 -0.0982,0.059 -1.45788,0.059 -1.3597,0 -1.40062,-0.002 -1.45787,-0.059 z m -10.87858,-3.330234 -0.0776,-0.061 v -1.2643 c 0,-1.22504 0.002,-1.26613 0.0589,-1.32322 0.0573,-0.0573 0.0982,-0.059 1.45788,-0.059 1.35971,0 1.40063,0.002 1.45788,0.059 0.0571,0.0571 0.0589,0.0981 0.0589,1.32322 v 1.2643 l -0.0776,0.061 c -0.076,0.0597 -0.10631,0.061 -1.43918,0.061 -1.33288,0 -1.36322,-10e-4 -1.43919,-0.061 z m 3.64523,-0.007 -0.0798,-0.0686 0.002,-1.17573 c 9.8e-4,-0.64665 0.003,-1.21219 0.005,-1.25673 0.001,-0.0445 0.0291,-0.10742 0.0615,-0.13989 0.0573,-0.0573 0.0982,-0.059 1.45788,-0.059 1.35971,0 1.40063,0.002 1.45788,0.059 0.0571,0.0571 0.0589,0.0982 0.0589,1.32322 v 1.2643 l -0.0776,0.061 c -0.076,0.0597 -0.10628,0.061 -1.44151,0.061 h -1.36391 z m 3.64949,0.039 c -0.0354,-0.0148 -0.0785,-0.0523 -0.0957,-0.0846 -0.0208,-0.0388 -0.0314,-0.47177 -0.0314,-1.27884 0,-1.18989 0.002,-1.22217 0.061,-1.29784 l 0.061,-0.0776 h 1.40942 1.40943 l 0.061,0.0776 c 0.0595,0.0757 0.061,0.10797 0.0607,1.27381 -2.4e-4,0.65791 -0.008,1.22655 -0.0184,1.26365 -0.0401,0.14953 -0.0799,0.15362 -1.51854,0.15157 -0.7338,-10e-4 -1.36312,-0.013 -1.39851,-0.0278 z m -0.066,-3.40548 c -0.0596,-0.0757 -0.061,-0.10779 -0.061,-1.31196 v -1.23434 l 0.0731,-0.0731 0.0731,-0.0731 1.4021,0.007 1.4021,0.007 0.0563,0.0696 c 0.0534,0.0661 0.0563,0.13247 0.0563,1.29929 0,1.19951 -0.001,1.23167 -0.061,1.30736 l -0.061,0.0776 h -1.40942 -1.40943 z"
       style="fill:#2497ed;fill-opacity:1;stroke-width:0.02945212" />
    <path
       d=""
       id="path275"
       style="fill:#000000;stroke-width:0.015875" />
    <g
       transform="matrix(0.02385425,0,0,0.02385425,193.19547,91.789633)"
       id="g986"
       style="fill:none">
      <path
         style="fill:#ff9500"
         d="m 768.296,576.809 c -5.281,2.031 -9.455,6.205 -11.487,11.487 l -78.142,203.17 c -6.575,17.094 -30.759,17.094 -37.334,0 l -78.142,-203.17 c -2.032,-5.282 -6.206,-9.456 -11.487,-11.487 l -203.17,-78.142 c -17.094,-6.575 -17.094,-30.76 0,-37.334 l 203.17,-78.142 c 5.281,-2.032 9.455,-6.206 11.487,-11.488 l 78.142,-203.169 c 6.575,-17.094 30.759,-17.094 37.334,0 l 78.142,203.169 c 2.032,5.282 6.206,9.456 11.487,11.488 l 203.17,78.142 c 17.094,6.574 17.094,30.759 0,37.334 z"
         id="path966" />
      <g
         style="fill:#ffbf00"
         id="g972">
        <path
           d="m 198.667,311.466 c -6.575,17.094 -30.759,17.094 -37.334,0 l -28.142,-73.17 c -2.032,-5.281 -6.206,-9.455 -11.487,-11.487 L 48.5341,198.667 c -17.0939,-6.575 -17.094,-30.759 -1e-4,-37.334 l 73.17,-28.142 c 5.281,-2.032 9.455,-6.206 11.487,-11.487 l 28.142,-73.1701 c 6.575,-17.0939 30.759,-17.0938 37.334,10e-5 l 28.142,73.17 c 2.032,5.281 6.206,9.455 11.487,11.487 l 73.17,28.142 c 17.094,6.575 17.094,30.759 0,37.334 l -73.17,28.142 c -5.281,2.031 -9.455,6.206 -11.487,11.487 z"
           id="path968" />
        <path
           d="m 358.296,826.809 c -5.281,2.031 -9.455,6.205 -11.487,11.487 l -28.142,73.17 c -6.575,17.094 -30.759,17.094 -37.334,0 l -28.142,-73.17 c -2.032,-5.282 -6.206,-9.456 -11.487,-11.487 l -73.17,-28.142 c -17.094,-6.575 -17.094,-30.76 0,-37.334 l 73.17,-28.142 c 5.281,-2.032 9.455,-6.206 11.487,-11.488 l 28.142,-73.169 c 6.575,-17.094 30.759,-17.094 37.334,0 l 28.142,73.169 c 2.032,5.282 6.206,9.456 11.487,11.488 l 73.17,28.142 c 17.094,6.574 17.094,30.759 0,37.334 z"
           id="path970" />
      </g>
    </g>
    <g
       transform="matrix(0.18861405,0,0,0.18861405,152.76856,93.535211)"
       id="Group-4"
       style="fill:none;fill-rule:evenodd;stroke:none;stroke-width:1">
      <polygon
         points="149.52038,10.302777 189.39248,50 149.52038,89.697223 109.64828,50 "
         id="Path"
         style="fill:#77c1d2" />
      <polygon
         points="49.840125,10.302777 132.49997,92.600082 52.755773,92.600082 9.9680251,50 "
         id="polygon992"
         style="fill:#2d3441" />
    </g>
    <g
       transform="matrix(2.343433,0,0,2.343433,-135.86875,26.375225)"
       id="g1134">
      <polygon
         id="polygon1041"
         points="85.39,28 90.62,24.97 85.18,21.83 79.94,24.85 "
         class="cls-3"
         style="fill:#e0684b"
         transform="matrix(0.26458333,0,0,0.26458333,97.623123,23.534226)" />
      <polygon
         id="polygon1043"
         points="55.83,24.97 61.07,28 78.46,17.95 73.23,14.93 "
         class="cls-3"
         style="fill:#e0684b"
         transform="matrix(0.26458333,0,0,0.26458333,97.623123,23.534226)" />
      <polygon
         id="polygon1045"
         points="73.23,35.02 67.78,38.16 73.23,41.3 78.67,38.16 "
         class="cls-3"
         style="fill:#e0684b"
         transform="matrix(0.26458333,0,0,0.26458333,97.623123,23.534226)" />
      <polygon
         id="polygon1047"
         points="73.23,55.11 90.62,45.06 90.62,24.97 85.39,28 85.39,42.04 73.23,49.06 61.07,42.04 61.07,28 55.83,24.97 55.83,45.06 "
         class="cls-4"
         style="fill:#bb464b"
         transform="matrix(0.26458333,0,0,0.26458333,97.623123,23.534226)" />
      <polygon
         id="polygon1049"
         points="73.23,35.02 78.67,38.16 78.67,31.87 73.23,28.73 67.78,31.87 67.78,38.16 "
         class="cls-4"
         style="fill:#bb464b"
         transform="matrix(0.26458333,0,0,0.26458333,97.623123,23.534226)" />
      <polygon
         id="polygon1051"
         points="73.23,41.3 73.23,49.06 85.39,42.04 85.39,28 78.67,31.87 78.67,38.16 "
         class="cls-5"
         style="fill:#e0ded8"
         transform="matrix(0.26458333,0,0,0.26458333,97.623123,23.534226)" />
      <polygon
         id="polygon1053"
         points="73.23,41.3 73.23,49.06 61.07,42.04 61.07,28 67.78,31.87 67.78,38.16 "
         class="cls-2"
         style="fill:#d5d2ca"
         transform="matrix(0.26458333,0,0,0.26458333,97.623123,23.534226)" />
      <polygon
         id="polygon1055"
         points="85.39,28 78.67,31.87 73.23,28.73 67.78,31.87 61.07,28 78.46,17.95 85.18,21.83 79.94,24.85 "
         class="cls-6"
         style="fill:#ffffff"
         transform="matrix(0.26458333,0,0,0.26458333,97.623123,23.534226)" />
    </g>
    <g
       transform="matrix(0.03797851,0,0,0.03797851,43.818264,91.276443)"
       id="g1150">
      <rect
         style="fill:#f7df1e"
         y="0"
         x="0"
         width="630"
         height="630"
         id="rect1136" />
      <path
         d="m 423.2,492.19 c 12.69,20.72 29.2,35.95 58.4,35.95 24.53,0 40.2,-12.26 40.2,-29.2 0,-20.3 -16.1,-27.49 -43.1,-39.3 l -14.8,-6.35 c -42.72,-18.2 -71.1,-41 -71.1,-89.2 0,-44.4 33.83,-78.2 86.7,-78.2 37.64,0 64.7,13.1 84.2,47.4 l -46.1,29.6 c -10.15,-18.2 -21.1,-25.37 -38.1,-25.37 -17.34,0 -28.33,11 -28.33,25.37 0,17.76 11,24.95 36.4,35.95 l 14.8,6.34 c 50.3,21.57 78.7,43.56 78.7,93 0,53.3 -41.87,82.5 -98.1,82.5 -54.98,0 -90.5,-26.2 -107.88,-60.54 z m -209.13,5.13 c 9.3,16.5 17.76,30.45 38.1,30.45 19.45,0 31.72,-7.61 31.72,-37.2 v -201.3 h 59.2 v 202.1 c 0,61.3 -35.94,89.2 -88.4,89.2 -47.4,0 -74.85,-24.53 -88.81,-54.075 z"
         id="path1138" />
    </g>
    <g
       transform="matrix(0.30179808,0,0,0.30179808,73.150578,92.639016)"
       id="g1200">
      <path
         id="Shadow"
         d="m 71.09,20.74 c -0.16,-0.17 -0.33,-0.34 -0.5,-0.5 -0.17,-0.16 -0.33,-0.34 -0.5,-0.5 -0.17,-0.16 -0.33,-0.34 -0.5,-0.5 -0.17,-0.16 -0.33,-0.34 -0.5,-0.5 -0.17,-0.16 -0.33,-0.34 -0.5,-0.5 -0.17,-0.16 -0.33,-0.34 -0.5,-0.5 -0.17,-0.16 -0.33,-0.34 -0.5,-0.5 A 26.46,26.46 0 0 1 75.5,35.7 C 75.5,52.27 58.68,65.75 38,65.75 26.42,65.75 16.06,61.52 9.17,54.89 l 0.5,0.5 0.5,0.5 0.5,0.5 0.5,0.5 0.5,0.5 0.5,0.5 0.5,0.5 c 6.88,6.91 17.47,11.36 29.33,11.36 20.68,0 37.5,-13.48 37.5,-30 0,-7.06 -3.04,-13.75 -8.41,-19.01 z" />
      <g
         id="Body">
        <path
           id="Background"
           d="M 73,35.7 C 73,50.91 57.33,63.24 38,63.24 18.67,63.24 3,50.91 3,35.7 3,26.27 9,17.94 18.22,13 27.44,8.06 33.18,3 38,3 42.82,3 46.94,7.13 57.78,13 67,17.94 73,26.27 73,35.7 Z"
           style="fill:#fbf0df" />
        <path
           id="Bottom_Shadow"
           data-name="Bottom Shadow"
           d="M 73,35.7 A 21.67,21.67 0 0 0 72.2,29.92 C 69.47,63.22 28.85,64.82 12.88,54.86 A 40,40 0 0 0 38,63.24 c 19.3,0 35,-12.35 35,-27.54 z"
           style="fill:#f6dece" />
        <path
           id="Light_Shine"
           data-name="Light Shine"
           d="M 24.53,11.17 C 29,8.49 34.94,3.46 40.78,3.45 A 9.29,9.29 0 0 0 38,3 c -2.42,0 -5,1.25 -8.25,3.13 -1.13,0.66 -2.3,1.39 -3.54,2.15 -2.33,1.44 -5,3.07 -8,4.7 C 8.69,18.13 3,26.62 3,35.7 3,36.1 3,36.5 3,36.89 9.06,15.48 20.07,13.85 24.53,11.17 Z"
           style="fill:#fffefc" />
        <path
           id="Top"
           d="M 35.12,5.53 A 16.41,16.41 0 0 1 29.49,18 c -0.28,0.25 -0.06,0.73 0.3,0.59 3.37,-1.31 7.92,-5.23 6,-13.14 C 35.71,5 35.12,5.12 35.12,5.53 Z m 2.27,0 A 16.24,16.24 0 0 1 39,19 c -0.12,0.35 0.31,0.65 0.55,0.36 C 41.74,16.56 43.65,11 37.93,5 37.64,4.74 37.19,5.14 37.39,5.49 Z M 40.15,5.36 A 16.42,16.42 0 0 1 47,17.12 0.33,0.33 0 0 0 47.65,17.23 C 48.57,13.74 48.05,7.79 40.48,4.7 40.08,4.54 39.82,5.08 40.15,5.32 Z m -18.46,10.4 a 16.94,16.94 0 0 0 10.47,-9 c 0.18,-0.36 0.75,-0.22 0.66,0.18 -1.73,8 -7.52,9.67 -11.12,9.45 -0.38,0.01 -0.37,-0.52 -0.01,-0.63 z"
           style="fill:#ccbea7;fill-rule:evenodd" />
        <path
           id="Outline"
           d="M 38,65.75 C 17.32,65.75 0.5,52.27 0.5,35.7 c 0,-10 6.18,-19.33 16.53,-24.92 3,-1.6 5.57,-3.21 7.86,-4.62 1.26,-0.78 2.45,-1.51 3.6,-2.19 C 32,1.89 35,0.5 38,0.5 c 3,0 5.62,1.2 8.9,3.14 1,0.57 2,1.19 3.07,1.87 2.49,1.54 5.3,3.28 9,5.27 C 69.32,16.37 75.5,25.69 75.5,35.7 75.5,52.27 58.68,65.75 38,65.75 Z M 38,3 c -2.42,0 -5,1.25 -8.25,3.13 -1.13,0.66 -2.3,1.39 -3.54,2.15 -2.33,1.44 -5,3.07 -8,4.7 C 8.69,18.13 3,26.62 3,35.7 3,50.89 18.7,63.25 38,63.25 57.3,63.25 73,50.89 73,35.7 73,26.62 67.31,18.13 57.78,13 54,11 51.05,9.12 48.66,7.64 47.57,6.97 46.57,6.35 45.66,5.8 42.63,4 40.42,3 38,3 Z" />
      </g>
      <g
         id="Mouth">
        <g
           id="Background-2"
           data-name="Background">
          <path
             d="m 45.05,43 a 8.93,8.93 0 0 1 -2.92,4.71 6.81,6.81 0 0 1 -4,1.88 A 6.84,6.84 0 0 1 34,47.71 8.93,8.93 0 0 1 31.12,43 0.72,0.72 0 0 1 31.92,42.19 H 44.26 A 0.72,0.72 0 0 1 45.05,43 Z"
             style="fill:#b71422"
             id="path1161" />
        </g>
        <g
           id="Tongue">
          <path
             id="Background-3"
             data-name="Background"
             d="m 34,47.79 a 6.91,6.91 0 0 0 4.12,1.9 6.91,6.91 0 0 0 4.11,-1.9 10.63,10.63 0 0 0 1,-1.07 6.83,6.83 0 0 0 -4.9,-2.31 6.15,6.15 0 0 0 -5,2.78 c 0.23,0.21 0.43,0.41 0.67,0.6 z"
             style="fill:#ff6164" />
          <path
             id="Outline-2"
             data-name="Outline"
             d="m 34.16,47 a 5.36,5.36 0 0 1 4.19,-2.08 6,6 0 0 1 4,1.69 c 0.23,-0.25 0.45,-0.51 0.66,-0.77 A 7,7 0 0 0 38.3,43.91 6.36,6.36 0 0 0 33.41,46.27 9.53,9.53 0 0 0 34.16,47 Z" />
        </g>
        <path
           id="Outline-3"
           data-name="Outline"
           d="m 38.09,50.19 a 7.42,7.42 0 0 1 -4.45,-2 9.52,9.52 0 0 1 -3.11,-5.05 1.2,1.2 0 0 1 0.26,-1 1.41,1.41 0 0 1 1.13,-0.51 h 12.34 a 1.44,1.44 0 0 1 1.13,0.51 1.19,1.19 0 0 1 0.25,1 v 0 a 9.52,9.52 0 0 1 -3.11,5.05 7.42,7.42 0 0 1 -4.44,2 z m -6.17,-7.4 c -0.16,0 -0.2,0.07 -0.21,0.09 a 8.29,8.29 0 0 0 2.73,4.37 6.23,6.23 0 0 0 3.65,1.75 6.28,6.28 0 0 0 3.65,-1.73 8.3,8.3 0 0 0 2.72,-4.37 0.21,0.21 0 0 0 -0.2,-0.09 z" />
      </g>
      <g
         id="Face">
        <ellipse
           id="Right_Blush"
           data-name="Right Blush"
           cx="53.220001"
           cy="40.18"
           rx="5.8499999"
           ry="3.4400001"
           style="fill:#febbd0" />
        <ellipse
           id="Left_Bluch"
           data-name="Left Bluch"
           cx="22.950001"
           cy="40.18"
           rx="5.8499999"
           ry="3.4400001"
           style="fill:#febbd0" />
        <path
           id="Eyes"
           d="m 25.7,38.8 a 5.51,5.51 0 1 0 -5.5,-5.51 5.51,5.51 0 0 0 5.5,5.51 z m 24.77,0 A 5.51,5.51 0 1 0 45,33.29 5.5,5.5 0 0 0 50.47,38.8 Z"
           style="fill-rule:evenodd" />
        <path
           id="Iris"
           d="M 24,33.64 A 2.07,2.07 0 1 0 21.94,31.57 2.07,2.07 0 0 0 24,33.64 Z m 24.77,0 a 2.07,2.07 0 1 0 -2.06,-2.07 2.07,2.07 0 0 0 2.04,2.07 z"
           style="fill:#ffffff;fill-rule:evenodd" />
      </g>
    </g>
    <g
       transform="matrix(0.07524972,0,0,0.07524972,102.70027,90.824111)"
       id="g1208">
      <path
         style="opacity:0.99299999;fill:#ff5b11"
         d="m 134.12891,0.02852413 c 0.87597,-0.11262012 1.64922,0.10824827 2.31912,0.66260384 24.64422,30.07797303 47.83536,61.22035303 69.5734,93.42714003 16.09398,24.230762 29.78735,49.851002 41.08144,76.862042 18.03674,48.10769 8.64963,89.96239 -28.16067,125.56343 -32.20784,27.22109 -69.31366,37.82275 -111.31744,31.80498 C 57.417281,318.11216 23.292852,289.06824 5.2524688,241.21632 0.55334866,225.63784 -0.99270486,209.73535 0.61424195,193.50884 3.2901013,165.5781 9.9161396,138.63199 20.492357,112.67118 24.899269,102.07879 30.642122,92.361043 37.720056,83.516607 c 5.774593,6.877828 11.296071,13.945823 16.565096,21.203323 2.439708,2.55036 4.979468,4.98013 7.619944,7.28864 C 82.059517,72.011154 106.13456,34.68456 134.12891,0.02852413 Z"
         id="path1204" />
      <path
         style="fill:#ff9758"
         d="m 129.49069,53.699435 c 24.31292,28.200419 46.2895,58.238235 65.92908,90.114125 6.15758,10.54732 11.2371,21.59094 15.23989,33.13019 8.3382,32.80419 -0.60695,59.86095 -26.83546,81.16897 -25.36712,17.84988 -53.19649,23.15071 -83.48808,15.90249 C 67.670412,263.87869 48.786203,241.90211 43.683491,208.08613 42.445084,197.42417 43.549645,187.04316 46.99651,176.94375 51.911705,164.46228 57.87514,152.53541 64.886814,141.16314 71.512852,131.44473 78.13889,121.72698 84.764929,112.00857 99.816637,92.653914 114.72522,73.217756 129.49069,53.699435 Z"
         id="path1206" />
    </g>
  </g>
</svg>
